<?xml version="1.0" standalone="no"?>
<!DOCTYPE svg PUBLIC "-//W3C//DTD SVG 20010904//EN"
 "http://www.w3.org/TR/2001/REC-SVG-20010904/DTD/svg10.dtd">
<svg version="1.0" xmlns="http://www.w3.org/2000/svg"
 width="2000.000000pt" height="2000.000000pt" viewBox="0 0 2000.000000 2000.000000"
 preserveAspectRatio="xMidYMid meet">
<metadata>
Created by potrace 1.11, written by Peter Selinger 2001-2013
</metadata>
<g transform="translate(0.000000,2000.000000) scale(0.100000,-0.100000)"
fill="#000000" stroke="none">
<path d="M11235 16389 c-234 -31 -450 -138 -621 -306 -183 -180 -294 -382
-345 -623 -31 -147 -31 -372 0 -518 42 -200 112 -349 240 -511 232 -295 556
-444 926 -427 306 14 556 139 782 390 285 317 378 769 243 1189 -110 344 -398
646 -720 757 -140 48 -358 69 -505 49z m275 -383 c185 -34 340 -134 467 -301
164 -216 208 -528 114 -799 -63 -178 -218 -361 -379 -444 -124 -64 -177 -77
-332 -76 -119 0 -145 3 -215 27 -198 65 -357 210 -455 412 -65 134 -85 227
-83 385 2 205 59 368 181 521 179 225 431 324 702 275z"/>
<path d="M7450 16319 c-32 -13 -78 -56 -96 -91 -31 -60 -9 -173 43 -220 48
-44 79 -48 373 -48 l280 0 0 -915 c0 -997 -3 -940 57 -997 77 -73 202 -60 269
28 l29 37 3 924 2 923 282 0 c266 0 284 1 325 21 62 30 95 78 101 144 6 71 -2
97 -40 141 -59 67 -20 64 -850 63 -474 0 -762 -4 -778 -10z"/>
<path d="M10180 13669 c-424 -26 -811 -149 -1134 -359 -488 -319 -716 -719
-693 -1219 10 -211 67 -392 176 -558 164 -248 435 -452 816 -613 228 -97 612
-209 890 -260 781 -142 1264 -324 1591 -599 141 -119 267 -309 310 -466 25
-92 30 -304 9 -406 -45 -225 -185 -443 -393 -610 -377 -304 -818 -449 -1367
-449 -617 0 -1203 214 -1780 650 -70 52 -143 105 -163 117 -112 68 -269 -22
-279 -159 -5 -76 22 -117 137 -206 112 -86 401 -280 515 -344 374 -212 780
-357 1155 -412 599 -89 1215 12 1683 275 620 349 922 814 893 1379 -17 335
-128 588 -360 821 -350 352 -997 629 -1767 759 -270 45 -624 143 -855 235
-556 223 -834 530 -834 919 0 245 99 455 308 658 297 288 724 452 1232 474
249 11 472 -23 739 -113 274 -92 387 -147 716 -351 296 -184 303 -187 361
-186 40 0 60 6 87 27 77 58 111 193 67 265 -13 21 -70 65 -163 126 -405 264
-586 356 -932 473 -237 81 -410 117 -635 133 -147 11 -146 11 -330 -1z"/>
<path d="M2240 13560 c-75 -14 -150 -68 -167 -120 -4 -14 -6 -1267 -3 -2785 5
-2572 6 -2762 22 -2791 42 -76 126 -121 210 -111 61 8 101 30 142 80 l31 39 5
2419 5 2418 1742 -2422 c958 -1332 1763 -2443 1789 -2470 31 -30 61 -51 88
-58 48 -13 123 -6 164 15 43 22 91 76 103 116 7 23 9 937 7 2777 l-3 2741 -31
39 c-47 58 -97 83 -172 83 -93 0 -146 -30 -188 -110 -18 -34 -19 -114 -24
-2421 l-5 -2386 -1770 2454 c-1442 2000 -1776 2458 -1805 2473 -43 21 -94 29
-140 20z"/>
<path d="M15835 13561 c-54 -14 -95 -41 -120 -79 -32 -49 -2056 -5455 -2063
-5510 -6 -57 18 -119 67 -166 78 -76 217 -75 291 3 30 32 70 130 300 744 l265
707 1324 -3 1325 -2 267 -710 c242 -642 271 -713 302 -742 69 -63 201 -69 270
-12 45 37 77 103 77 159 0 33 -240 685 -1026 2784 -564 1507 -1034 2752 -1045
2767 -10 15 -35 34 -55 44 -41 19 -134 28 -179 16z m658 -2346 l574 -1530
-584 -3 c-320 -1 -846 -1 -1167 0 l-584 3 559 1480 c308 814 571 1511 586
1550 22 57 28 66 35 50 4 -11 266 -708 581 -1550z"/>
<path d="M6510 7429 c-32 -13 -78 -57 -96 -91 -12 -23 -14 -191 -14 -1065 0
-1004 1 -1039 19 -1069 11 -18 36 -45 57 -60 l37 -29 306 0 c325 0 376 5 520
52 270 87 517 297 664 563 47 86 103 254 118 358 17 121 7 375 -19 472 -65
246 -187 439 -380 605 -139 120 -291 199 -473 246 -76 20 -116 22 -399 25
-204 2 -324 0 -340 -7z m628 -375 c293 -60 530 -289 603 -583 18 -71 21 -105
17 -225 -4 -126 -8 -151 -35 -229 -45 -127 -86 -190 -198 -302 -77 -77 -118
-110 -180 -142 -130 -68 -203 -84 -402 -90 l-173 -6 0 797 0 796 145 0 c94 0
173 -6 223 -16z"/>
<path d="M10175 7421 c-22 -10 -52 -31 -67 -47 -20 -22 -124 -287 -402 -1029
-392 -1043 -393 -1047 -365 -1122 50 -134 253 -153 322 -31 13 24 60 139 103
255 l79 213 405 0 405 0 44 -117 c122 -328 141 -372 177 -400 61 -46 164 -42
229 9 37 29 65 90 65 141 0 33 -90 284 -371 1033 -204 544 -380 1007 -392
1029 -41 75 -147 105 -232 66z m211 -1041 l131 -350 -269 0 -268 0 19 48 c10
26 69 183 132 350 62 166 116 302 119 302 3 0 64 -158 136 -350z"/>
<path d="M12270 7409 c-40 -16 -89 -58 -106 -91 -24 -46 -21 -120 6 -165 12
-21 172 -246 356 -500 l334 -462 0 -468 c0 -438 2 -471 19 -510 47 -103 192
-135 277 -61 72 63 69 40 72 571 l3 477 339 465 c186 255 346 478 354 494 34
65 10 173 -49 219 -60 48 -145 52 -211 12 -19 -13 -142 -172 -324 -420 -160
-220 -295 -400 -298 -400 -4 0 -131 170 -282 378 -151 207 -290 394 -308 414
-47 52 -121 71 -182 47z"/>
</g>
</svg>
