<?xml version="1.0" standalone="no"?>
<!DOCTYPE svg PUBLIC "-//W3C//DTD SVG 20010904//EN"
 "http://www.w3.org/TR/2001/REC-SVG-20010904/DTD/svg10.dtd">
<svg version="1.0" xmlns="http://www.w3.org/2000/svg"
 width="2000.000000pt" height="2000.000000pt" viewBox="0 0 2000.000000 2000.000000"
 preserveAspectRatio="xMidYMid meet">
<metadata>
Created by potrace 1.11, written by Peter Selinger 2001-2013
</metadata>
<g transform="translate(0.000000,2000.000000) scale(0.100000,-0.100000)"
fill="#000000" stroke="none">
<path d="M11300 16394 c0 -5 -31 -10 -68 -11 -187 -5 -440 -127 -612 -295
-184 -178 -301 -388 -351 -628 -27 -133 -30 -372 -5 -495 20 -98 57 -225 65
-225 4 0 7 -9 8 -21 3 -40 118 -233 133 -224 5 3 7 0 5 -7 -8 -20 130 -173
224 -249 182 -148 384 -223 633 -235 243 -12 484 58 682 200 62 44 232 210
230 223 -1 5 7 14 16 20 21 15 105 145 144 220 67 134 106 297 113 482 7 197
-22 365 -93 534 -27 65 -95 186 -117 209 -6 7 -25 32 -40 54 -43 63 -183 201
-262 256 -125 88 -258 146 -403 174 -93 18 -302 30 -302 18z m265 -399 c33 -9
88 -29 123 -45 34 -16 64 -30 67 -30 17 -3 178 -158 225 -216 41 -51 96 -163
125 -254 34 -108 44 -269 24 -391 -16 -99 -13 -87 -27 -122 -7 -15 -15 -40
-19 -55 -3 -15 -25 -59 -49 -99 -23 -39 -40 -74 -38 -77 2 -3 1 -4 -2 -2 -4 3
-23 -16 -44 -42 -56 -72 -154 -156 -223 -192 -34 -19 -65 -37 -68 -43 -3 -5
-10 -8 -15 -7 -5 1 -36 -7 -69 -17 -45 -13 -94 -17 -195 -17 -119 0 -145 3
-215 27 -198 65 -357 210 -455 412 -65 134 -85 227 -83 385 2 203 58 366 178
518 127 162 270 246 485 286 46 9 214 -3 275 -19z"/>
<path d="M7450 16319 c-32 -13 -78 -56 -96 -91 -31 -60 -9 -173 43 -220 48
-44 83 -49 326 -48 128 1 253 1 280 1 l47 -1 0 -915 c0 -997 -3 -940 57 -997
35 -33 68 -46 119 -46 56 0 116 29 150 74 l29 37 3 924 2 923 93 0 c50 1 178
1 282 1 171 0 194 2 233 20 61 30 94 78 100 144 6 71 -2 97 -40 141 -59 67
-20 64 -850 63 -474 0 -762 -4 -778 -10z"/>
<path d="M10235 13674 c-180 -9 -500 -57 -490 -74 3 -5 -3 -6 -12 -4 -44 12
-359 -101 -513 -183 -166 -88 -365 -227 -353 -246 3 -6 1 -7 -5 -3 -20 12
-262 -229 -262 -261 0 -7 -4 -13 -9 -13 -14 0 -94 -132 -136 -222 -132 -288
-139 -674 -15 -970 71 -172 238 -373 419 -507 87 -64 255 -168 281 -173 8 -2
18 -7 21 -11 3 -4 61 -33 130 -63 241 -108 641 -228 944 -284 233 -42 496
-101 652 -146 150 -43 395 -129 456 -161 15 -7 33 -11 40 -7 7 4 9 4 5 0 -4
-5 40 -32 97 -61 206 -106 372 -233 480 -368 137 -172 195 -331 196 -546 2
-232 -74 -431 -239 -628 -34 -39 -59 -74 -56 -77 2 -3 1 -4 -2 -1 -4 2 -34
-20 -68 -49 -33 -30 -96 -78 -138 -109 -42 -30 -75 -57 -72 -59 2 -3 -2 -5 -9
-5 -6 0 -32 -12 -56 -27 -60 -38 -256 -134 -303 -148 -21 -6 -38 -15 -38 -20
0 -5 -4 -7 -8 -4 -5 3 -43 -6 -85 -19 -342 -109 -850 -126 -1239 -41 -358 78
-682 218 -1028 444 -63 41 -120 75 -127 75 -7 0 -11 4 -10 8 2 8 -184 152
-241 186 -113 69 -268 -22 -280 -163 -3 -41 -1 -55 7 -50 6 4 9 2 6 -6 -10
-27 38 -80 155 -168 132 -99 359 -250 485 -322 664 -378 1362 -517 2040 -408
136 22 352 75 372 92 7 6 13 8 13 4 0 -14 222 76 358 147 450 232 764 561 886
927 47 143 60 233 61 410 0 237 -35 399 -125 575 -97 188 -212 315 -455 503
-12 9 -92 62 -120 79 -100 61 -182 106 -192 106 -7 0 -13 3 -13 7 0 12 -253
119 -402 171 -237 83 -561 166 -819 209 -172 28 -502 111 -677 170 -80 27
-151 46 -157 43 -5 -4 -7 -3 -3 2 4 4 -37 27 -91 50 -413 176 -666 419 -741
711 -40 155 -20 356 50 510 16 36 27 71 23 78 -3 6 -3 8 2 4 4 -4 32 28 62 71
113 165 339 349 553 451 52 25 98 50 102 55 4 6 8 7 8 3 0 -3 37 6 83 22 94
33 259 76 332 86 28 3 54 9 58 11 34 20 472 23 597 4 129 -19 329 -73 485
-131 239 -88 325 -134 708 -372 87 -54 163 -96 169 -92 6 4 8 3 5 -3 -10 -16
52 -38 105 -37 88 1 168 100 168 208 0 92 -18 108 -325 301 -289 181 -471 272
-700 350 -60 20 -119 41 -130 46 -68 28 -333 94 -343 84 -3 -2 -10 -1 -16 4
-26 20 -354 43 -511 35z"/>
<path d="M2245 13560 c-76 -12 -154 -66 -172 -120 -11 -33 0 -5540 11 -5562 4
-10 12 -15 17 -12 5 3 6 -1 3 -9 -7 -19 64 -82 111 -97 46 -15 126 -7 167 17
17 10 45 35 62 56 l31 39 2 2331 c2 1283 3 2371 3 2419 0 73 2 86 15 82 8 -3
13 -9 12 -14 -3 -11 414 -590 424 -590 5 0 8 -3 7 -7 -3 -11 53 -93 63 -93 5
0 9 -5 9 -11 0 -20 92 -139 102 -132 7 3 8 1 4 -5 -6 -10 117 -193 136 -200 4
-2 8 -8 8 -12 0 -11 340 -484 351 -488 5 -2 9 -8 9 -13 0 -13 111 -164 119
-162 4 1 8 -4 8 -10 0 -14 211 -310 224 -315 5 -2 9 -8 9 -13 0 -7 132 -197
163 -234 4 -5 46 -64 93 -130 47 -66 89 -121 95 -123 5 -2 9 -8 9 -13 0 -4 39
-63 88 -129 48 -67 94 -131 102 -144 8 -12 170 -237 360 -500 190 -263 352
-488 360 -500 90 -130 455 -633 464 -641 7 -5 14 -14 15 -20 5 -19 244 -346
267 -364 13 -10 24 -23 24 -27 0 -5 17 -20 37 -34 31 -21 48 -25 107 -25 47 0
82 6 102 17 46 25 93 78 105 118 7 23 9 936 7 2776 l-3 2741 -29 37 c-30 40
-84 78 -98 70 -4 -3 -8 0 -8 5 0 7 -27 11 -68 11 -58 0 -75 -4 -115 -29 -28
-19 -55 -46 -69 -73 l-23 -43 -3 -2035 c-1 -1119 -3 -2193 -5 -2386 l-2 -352
-66 92 c-36 50 -124 171 -195 270 -71 98 -145 201 -166 230 -20 28 -41 50 -48
48 -6 -1 -9 2 -5 8 6 9 -571 822 -601 846 -8 6 -14 14 -14 18 0 10 -559 785
-582 808 -10 10 -17 19 -16 21 4 5 -55 87 -63 87 -5 0 -9 5 -9 10 0 9 -568
805 -605 847 -5 7 -41 57 -80 112 -38 54 -73 97 -76 95 -3 -2 -6 2 -6 9 0 10
-67 106 -369 522 -36 50 -139 194 -230 320 -91 127 -172 235 -180 242 -8 6
-14 13 -12 15 2 2 -46 73 -106 157 -69 96 -121 158 -140 168 -41 22 -93 30
-141 23z"/>
<path d="M15835 13561 c-53 -13 -94 -41 -119 -79 -18 -27 -585 -1518 -700
-1842 -7 -19 -316 -843 -686 -1830 -370 -987 -675 -1814 -678 -1838 -7 -60 20
-122 74 -172 34 -32 52 -41 70 -37 13 2 24 0 24 -6 0 -15 111 -2 148 17 17 9
42 31 56 48 18 25 289 720 300 773 1 6 9 26 18 45 8 19 64 167 124 327 l109
293 1325 -3 1324 -2 103 -275 c57 -151 116 -309 132 -350 16 -41 89 -235 162
-430 147 -393 160 -416 249 -440 61 -16 147 -5 187 26 37 28 77 89 68 104 -3
5 -1 10 4 10 6 0 11 20 11 46 0 36 -38 149 -161 478 -89 237 -165 433 -170
434 -5 2 -7 7 -4 12 6 10 -404 1104 -416 1108 -5 2 -7 7 -4 12 6 10 -224 624
-236 628 -5 2 -7 7 -4 12 6 9 -229 643 -236 636 -2 -2 -5 5 -6 17 -3 39 -529
1428 -538 1420 -4 -5 -5 -2 -1 4 9 15 -269 764 -289 779 -8 6 -12 13 -9 16 9
9 -48 45 -91 57 -44 12 -94 13 -140 2z m138 -956 c30 -82 61 -163 67 -180 7
-16 14 -34 15 -40 2 -5 78 -210 170 -455 92 -245 178 -474 192 -510 88 -238
108 -288 117 -283 5 3 6 1 2 -6 -6 -9 183 -530 329 -906 13 -33 49 -130 81
-215 31 -85 61 -157 66 -158 4 -2 6 -7 3 -11 -4 -8 41 -137 56 -156 5 -7 -384
-9 -1164 -8 -968 2 -1172 4 -1170 15 2 8 43 120 92 250 50 130 91 245 93 255
2 10 6 20 9 23 14 12 449 1182 443 1192 -4 6 -3 9 2 6 5 -3 114 274 243 616
307 812 283 751 291 735 5 -8 33 -81 63 -164z"/>
<path d="M6505 7426 c-30 -13 -74 -57 -93 -93 -7 -13 -11 -365 -11 -1058 1
-1120 -2 -1062 53 -1113 55 -51 62 -52 359 -52 153 0 276 4 273 9 -3 4 6 6 19
3 14 -2 55 1 92 8 457 85 839 471 918 928 19 109 19 325 0 434 -27 158 -96
321 -191 454 -61 87 -144 175 -157 167 -5 -3 -7 -1 -3 5 8 13 -154 144 -171
138 -7 -3 -12 0 -10 6 3 17 -178 104 -278 133 -49 15 -113 28 -142 30 -29 2
-56 6 -60 8 -4 3 -134 5 -288 6 -210 0 -288 -3 -310 -13z m630 -371 c109 -23
164 -45 250 -100 76 -49 158 -121 219 -193 44 -53 111 -190 130 -267 10 -38
20 -77 23 -85 2 -8 4 -69 4 -135 0 -235 -63 -388 -231 -558 -48 -48 -85 -89
-83 -92 2 -3 1 -3 -2 -1 -3 2 -41 -16 -83 -40 -136 -78 -250 -104 -459 -104
l-133 0 0 795 0 795 148 0 c91 0 174 -6 217 -15z"/>
<path d="M10175 7421 c-42 -19 -95 -69 -98 -92 -2 -8 -5 -18 -8 -24 -4 -5 -39
-98 -79 -205 -40 -107 -76 -204 -81 -215 -20 -45 -168 -447 -171 -463 -2 -9
-6 -19 -9 -22 -9 -9 -253 -664 -253 -682 0 -10 -3 -18 -7 -18 -6 0 -36 -74
-44 -110 -1 -3 -7 -18 -14 -35 -81 -193 -96 -271 -67 -338 18 -42 71 -92 87
-82 7 5 10 4 6 -2 -7 -12 37 -23 90 -23 47 0 107 33 131 72 28 46 153 378 146
389 -3 5 -1 9 5 9 6 0 16 18 22 40 l12 40 406 0 407 0 53 -145 c30 -79 58
-142 62 -139 5 3 6 -1 3 -9 -3 -8 11 -56 32 -106 43 -109 77 -141 153 -149
118 -11 211 69 211 181 0 38 -37 152 -91 282 -7 17 -13 32 -13 35 -7 39 -82
217 -89 213 -6 -3 -7 -1 -3 5 8 13 -330 925 -345 930 -5 2 -7 8 -4 12 3 5 -2
26 -11 47 -9 21 -18 45 -20 53 -8 34 -131 350 -135 346 -2 -2 -5 7 -5 21 -3
46 -67 156 -102 177 -48 27 -127 30 -177 7z m211 -1041 l131 -350 -269 0 -268
0 19 48 c10 26 69 183 132 350 62 166 116 302 119 302 3 0 64 -158 136 -350z"/>
<path d="M12263 7405 c-18 -8 -33 -19 -33 -25 0 -6 -4 -9 -9 -6 -9 6 -43 -28
-59 -59 -11 -21 -16 -63 -14 -107 2 -24 74 -141 139 -224 13 -16 72 -97 132
-181 59 -84 112 -149 116 -145 3 4 5 2 3 -4 -2 -7 70 -113 160 -238 l162 -225
0 -468 c0 -438 2 -471 19 -510 47 -103 192 -135 277 -61 72 63 69 40 72 572
l3 479 30 38 c17 22 27 44 23 50 -4 7 -3 9 3 6 11 -7 480 629 476 644 -2 5 1
9 6 9 11 0 111 135 111 150 0 5 4 10 10 10 18 0 50 79 50 125 0 150 -167 236
-284 147 -20 -15 -130 -157 -246 -317 -115 -159 -214 -295 -219 -301 -5 -6
-39 -53 -76 -103 -37 -50 -70 -91 -73 -91 -4 0 -16 13 -27 29 -10 16 -23 27
-27 25 -5 -3 -7 -1 -6 4 4 13 -410 582 -423 582 -6 0 -8 4 -5 8 6 10 -101 149
-134 174 -33 24 -116 31 -157 13z"/>
</g>
</svg>
